<svg version="1.2" xmlns="http://www.w3.org/2000/svg" viewBox="0 0 24 24" width="24" height="24">
	<style>
		.s0 { fill: #e3e3e3 } 
		.s1 { fill: #89e484 } 
	</style>
	<path fill-rule="evenodd" class="s0" d="m3.98 18.2q-1.34 0-2.28-0.94-0.94-0.94-0.94-2.28v-5.97q0-1.34 0.94-2.28 0.94-0.93 2.28-0.93h4.36l-1.59 2.27h-2.76q-0.4 0-0.68 0.27-0.27 0.28-0.27 0.68v5.96q0 0.4 0.27 0.67 0.28 0.28 0.68 0.28h4.01v2.27zm13.27-12.4q1.34 0 2.27 0.93 0.94 0.94 0.94 2.28v5.97q0 1.34-0.94 2.28-0.93 0.94-2.27 0.94h-4.35l1.13-2.27h3.21q0.4 0 0.67-0.28 0.28-0.27 0.28-0.67v-5.96q0-0.4-0.28-0.68-0.27-0.27-0.67-0.27h-1.53l-0.71-1.07-0.48-1.2zm4.21 8.8v-5.2h0.64q0.48 0 0.81 0.33 0.33 0.33 0.33 0.81v2.92q0 0.48-0.33 0.81-0.33 0.33-0.81 0.33z"/>
	<path id="Layer copy" class="s1" d="m9.15 18.2l0.99-4.88-4.14-0.11 6.08-7.21 0.64 0.02-0.99 4.89 4.14 0.1-6.08 7.2z"/>
</svg>