<svg version="1.2" xmlns="http://www.w3.org/2000/svg" viewBox="0 0 24 24" width="24" height="24">
	<style>
		.s0 { fill: #e3e3e3 } 
		.s1 { fill: #ff963f } 
	</style>
	<path class="s0" d="m3.98 18.2q-1.34 0-2.28-0.94-0.94-0.94-0.94-2.28v-5.97q0-1.34 0.94-2.28 0.94-0.93 2.28-0.93h13.27q1.34 0 2.28 0.93 0.93 0.94 0.93 2.28v5.97q0 1.34-0.93 2.28-0.94 0.94-2.28 0.94zm0.01-2.27h13.25q0.4 0 0.67-0.28 0.28-0.27 0.28-0.67v-5.96q0-0.4-0.28-0.68-0.27-0.27-0.67-0.27h-13.25q-0.41 0-0.68 0.27-0.28 0.28-0.28 0.68v5.96q0 0.4 0.28 0.67 0.27 0.28 0.68 0.28zm17.47-1.33v-5.2h0.64q0.48 0 0.81 0.33 0.33 0.33 0.33 0.81v2.92q0 0.48-0.33 0.81-0.33 0.33-0.81 0.33zm-17.43 0.33v-5.86h2.16v5.86z"/>
	<path id="Layer copy" fill-rule="evenodd" class="s1" d="m4.04 14.93v-5.86l4.96-0.04v5.96z"/>
</svg>