<svg xmlns="http://www.w3.org/2000/svg" height="24px" viewBox="0 -960 960 960" width="24px" fill="#e3e3e3"><path d="M159.28-231.87q-53.68 0-91.26-37.58-37.59-37.58-37.59-91.27v-238.8q0-53.59 37.59-91.1 37.58-37.51 91.26-37.51h530.68q53.58 0 91.09 37.51 37.52 37.51 37.52 91.1v238.8q0 53.69-37.52 91.27-37.51 37.58-91.09 37.58H159.28Zm322.15-91h208.24q16.09 0 26.99-11.02 10.9-11.02 10.9-27.07v-238.32q0-16.09-10.88-26.97-10.89-10.88-26.98-10.88H481.43v314.26Zm377.14-53.06v-208.14h25.5q19.15 0 32.32 13.18 13.18 13.17 13.18 32.32v117.14q0 19.15-13.18 32.32-13.17 13.18-32.32 13.18h-25.5Z"/></svg>