<svg version="1.2" xmlns="http://www.w3.org/2000/svg" viewBox="0 0 24 24" width="24" height="24">
	<style>
		.s0 { fill: #ff3f3f } 
		.s1 { fill: #e3e3e3 } 
	</style>
	<path id="Layer 2" fill-rule="evenodd" class="s0" d="m10 2h4c5.52 0 10 4.48 10 10v1c0 5.52-4.48 10-10 10h-4c-5.52 0-10-4.48-10-10v-1c0-5.52 4.48-10 10-10z"/>
	<path class="s1" d="m9.71 14.33q-0.94-0.94-0.94-2.28v-5.96q0-1.34 0.94-2.29 0.95-0.94 2.29-0.94 1.35 0 2.29 0.94 0.94 0.95 0.94 2.29v5.96q0 1.34-0.94 2.28-0.95 0.95-2.29 0.94-1.35 0-2.29-0.94zm1.2 8.03v-3.09q-2.7-0.37-4.46-2.43-1.76-2.05-1.76-4.79h2.18q0 2.13 1.5 3.63 1.5 1.49 3.63 1.49 2.13 0 3.63-1.5 1.5-1.49 1.5-3.62h2.18q0 2.74-1.76 4.79-1.76 2.06-4.46 2.43v3.09zm1.77-9.63q0.27-0.28 0.27-0.68v-5.96q0-0.41-0.27-0.68-0.27-0.27-0.68-0.27-0.41 0-0.68 0.27-0.27 0.28-0.27 0.68v5.96q0 0.4 0.27 0.68 0.27 0.27 0.68 0.27 0.41 0 0.68-0.27z"/>
</svg>