<svg xmlns="http://www.w3.org/2000/svg" height="24px" viewBox="0 -960 960 960" width="24px" fill="#e3e3e3"><path d="M480.24-69.24q-34.2 0-58.53-24.22-24.34-24.21-24.34-58.41h165.5q0 34.2-24.22 58.41-24.22 24.22-58.41 24.22ZM151.87-191.87v-91H229v-271.87q0-86.11 51.32-153.6 51.31-67.49 134.18-88.2v-26.09q0-27.39 19.05-46.45 19.06-19.05 46.45-19.05 25.24 0 43.58 16.78 18.33 16.78 20.49 41.31v9.89Q531.43-798 525-773.25t-6.43 50.62q0 85.63 60.29 145.56 60.29 59.94 145.68 59.94 1.68 0 3.23-.12 1.56-.12 3.23-.36v234.74h77.13v91H151.87Zm483.25-441.81q-36.55-36.56-36.55-88.95t36.55-88.95q36.55-36.55 88.95-36.55 52.39 0 88.94 36.55 36.56 36.56 36.56 88.95t-36.56 88.95q-36.55 36.55-88.94 36.55-52.4 0-88.95-36.55Z"/></svg>