<svg xmlns="http://www.w3.org/2000/svg" height="24px" viewBox="0 -960 960 960" width="24px" fill="#e3e3e3"><path d="M409-149q-29-29-29-71t29-71q29-29 71-29t71 29q29 29 29 71t-29 71q-29 29-71 29t-71-29ZM259.02-340.98 170-431.52q59-59 138.5-93.74Q388-560 480-560t171.5 35Q731-490 790-430l-89.02 89.02q-44-43.04-100.21-67.32-56.2-24.29-120.77-24.29T359.23-408.3q-56.21 24.28-100.21 67.32Zm-170-170L0-600q92-94 215-147t265-53q142 0 265 53t215 147l-89.02 89.02q-77-76.04-176.47-118.82-99.47-42.79-214.51-42.79-115.04 0-214.51 42.79-99.47 42.78-176.47 118.82Z"/></svg>